<svg width="78" height="78" viewBox="0 0 78 78" fill="none" xmlns="http://www.w3.org/2000/svg">
<path d="M20.0078 62.1562C19.737 62.4609 19.3984 62.4102 18.9922 62.0039C18.5521 61.6315 18.4844 61.3099 18.7891 61.0391C19.0599 60.7344 19.3984 60.7852 19.8047 61.1914C20.2109 61.5638 20.2786 61.8854 20.0078 62.1562ZM17.875 59.0586C18.1797 59.4648 18.1797 59.7865 17.875 60.0234C17.6042 60.2266 17.3164 60.1081 17.0117 59.668C16.707 59.2279 16.707 58.9232 17.0117 58.7539C17.3164 58.5169 17.6042 58.6185 17.875 59.0586ZM14.7773 56.0117C14.6081 56.2487 14.388 56.2826 14.1172 56.1133C13.7786 55.944 13.6602 55.7409 13.7617 55.5039C13.8633 55.3346 14.0833 55.3008 14.4219 55.4023C14.7604 55.5716 14.8789 55.7747 14.7773 56.0117ZM16.3516 57.7383C16.1484 57.9753 15.8776 57.9245 15.5391 57.5859C15.2344 57.2135 15.2005 56.9427 15.4375 56.7734C15.6406 56.5703 15.9115 56.6211 16.25 56.9258C16.5547 57.2982 16.5885 57.569 16.3516 57.7383ZM22.9023 63.4258C22.7669 63.832 22.4453 63.9336 21.9375 63.7305C21.362 63.5951 21.1419 63.3411 21.2773 62.9688C21.4128 62.5964 21.7344 62.4779 22.2422 62.6133C22.7839 62.7826 23.0039 63.0534 22.9023 63.4258ZM26.1016 63.6797C26.1016 64.0521 25.8307 64.2383 25.2891 64.2383C24.7135 64.306 24.4258 64.1198 24.4258 63.6797C24.4258 63.3073 24.6966 63.1211 25.2383 63.1211C25.8138 63.0534 26.1016 63.2396 26.1016 63.6797ZM29.0469 63.1719C29.1146 63.5104 28.8776 63.7474 28.3359 63.8828C27.7943 64.0182 27.4896 63.8828 27.4219 63.4766C27.3542 63.0703 27.5911 62.8164 28.1328 62.7148C28.6745 62.6471 28.9792 62.7995 29.0469 63.1719ZM78 14.625V63.375C78 67.4036 76.5697 70.8483 73.709 73.709C70.8483 76.5697 67.4036 78 63.375 78H52C51.4583 78 51.0436 77.9831 50.7559 77.9492C50.4681 77.9154 50.138 77.8307 49.7656 77.6953C49.3932 77.5599 49.1224 77.3145 48.9531 76.959C48.7839 76.6035 48.6992 76.138 48.6992 75.5625V63.4258C48.6992 60.1419 47.819 57.7383 46.0586 56.2148C47.9883 56.0117 49.7233 55.707 51.2637 55.3008C52.804 54.8945 54.3952 54.2344 56.0371 53.3203C57.679 52.4062 59.0501 51.2806 60.1504 49.9434C61.2507 48.6061 62.1478 46.8288 62.8418 44.6113C63.5358 42.3939 63.8828 39.8464 63.8828 36.9688C63.8828 32.8724 62.5456 29.3854 59.8711 26.5078C61.1237 23.4271 60.9883 19.974 59.4648 16.1484C58.5169 15.8438 57.1458 16.0299 55.3516 16.707C53.5573 17.3841 52 18.1289 50.6797 18.9414L48.75 20.1602C45.6016 19.2799 42.3516 18.8398 39 18.8398C35.6484 18.8398 32.3984 19.2799 29.25 20.1602C28.7083 19.7878 27.9889 19.3307 27.0918 18.7891C26.1947 18.2474 24.7812 17.5957 22.8516 16.834C20.9219 16.0723 19.4661 15.8438 18.4844 16.1484C16.9948 19.974 16.8763 23.4271 18.1289 26.5078C15.4544 29.3854 14.1172 32.8724 14.1172 36.9688C14.1172 39.8464 14.4642 42.3854 15.1582 44.5859C15.8522 46.7865 16.7409 48.5638 17.8242 49.918C18.9076 51.2721 20.2702 52.4062 21.9121 53.3203C23.554 54.2344 25.1452 54.8945 26.6855 55.3008C28.2259 55.707 29.9609 56.0117 31.8906 56.2148C30.5365 57.4336 29.707 59.1771 29.4023 61.4453C28.6914 61.7839 27.9297 62.0378 27.1172 62.207C26.3047 62.3763 25.3398 62.4609 24.2227 62.4609C23.1055 62.4609 21.9967 62.097 20.8965 61.3691C19.7962 60.6413 18.8568 59.5833 18.0781 58.1953C17.4349 57.112 16.6139 56.2318 15.6152 55.5547C14.6165 54.8776 13.7786 54.4714 13.1016 54.3359L12.0859 54.1836C11.375 54.1836 10.8841 54.2598 10.6133 54.4121C10.3424 54.5645 10.2578 54.7591 10.3594 54.9961C10.4609 55.2331 10.6133 55.4701 10.8164 55.707C11.0195 55.944 11.2396 56.1471 11.4766 56.3164L11.832 56.5703C12.5768 56.9089 13.3132 57.5521 14.041 58.5C14.7689 59.4479 15.3021 60.3112 15.6406 61.0898L16.1484 62.2578C16.5885 63.5443 17.3333 64.5853 18.3828 65.3809C19.4323 66.1764 20.5664 66.6842 21.7852 66.9043C23.0039 67.1244 24.1803 67.2428 25.3145 67.2598C26.4486 67.2767 27.388 67.2174 28.1328 67.082L29.3008 66.8789C29.3008 68.1654 29.3092 69.9089 29.3262 72.1094C29.3431 74.3099 29.3516 75.4609 29.3516 75.5625C29.3516 76.3073 29.1654 76.8744 28.793 77.2637C28.4206 77.653 28.0482 77.873 27.6758 77.9238C27.3034 77.9746 26.7448 78 26 78H14.625C10.5964 78 7.15169 76.5697 4.29102 73.709C1.43034 70.8483 0 67.4036 0 63.375V14.625C0 10.5964 1.43034 7.15169 4.29102 4.29102C7.15169 1.43034 10.5964 0 14.625 0H63.375C67.4036 0 70.8483 1.43034 73.709 4.29102C76.5697 7.15169 78 10.5964 78 14.625Z" fill="black"/>
</svg>
