<svg width="124" height="124" viewBox="0 0 124 124" fill="none" xmlns="http://www.w3.org/2000/svg">
<path d="M40.3571 98.2613L98.2872 40.3312C105.046 41.876 112.384 40.1381 117.597 34.9244C122.811 29.7107 124.549 22.3729 123.004 15.6143L106.204 32.221L94.4252 29.1314L91.3356 17.3522L108.135 0.552501C101.377 -0.992303 94.039 0.745601 88.8253 5.95931C83.6116 11.173 81.8737 18.5108 83.4185 25.2694L25.4884 83.1995C18.7298 81.6547 11.392 83.3926 6.17831 88.6063C-1.93191 96.5234 -1.93191 109.654 5.98521 117.571C13.9023 125.488 27.0332 125.488 34.9503 117.571C40.164 112.358 41.9019 105.02 40.3571 98.2613ZM23.5573 114.868L11.7782 111.778L8.68861 99.9992L17.3781 91.3097L29.1573 94.3993L32.2469 106.178L23.5573 114.868Z" fill="#94989B"/>
<path d="M55.6129 42.2621L44.7992 53.4619L34.1787 42.4552L44.7992 31.2554L55.6129 42.2621Z" fill="#3E4347"/>
<path d="M32.2478 9.82149L13.3239 29.3246C12.5515 30.097 12.5515 31.2556 13.3239 31.8349L20.4686 39.1728L27.6134 46.5106C28.3858 47.283 29.3513 47.283 30.1237 46.5106L49.0475 27.0074C49.8199 26.235 49.8199 25.0764 49.0475 24.4971L34.7581 9.82149C34.1788 9.04909 33.0202 9.04909 32.2478 9.82149ZM0.579301 42.4555C-0.1931 43.2279 -0.1931 44.3865 0.579301 44.9658L14.6756 59.8345C15.448 60.6069 16.4135 60.6069 17.1859 59.8345C17.1859 59.8345 21.0479 55.7794 21.241 55.5863L4.63441 38.4004C4.44131 38.4004 0.579301 42.4555 0.579301 42.4555Z" fill="#94989B"/>
<path d="M20.2747 39.3657L13.1299 32.0279C13.1299 32.0279 15.4472 36.083 9.26794 36.8554C6.75764 37.2416 5.21283 37.6278 4.44043 38.4002L21.0471 55.5861C21.8195 54.6206 22.2057 53.0758 22.5919 50.5655C23.3643 44.1932 27.2263 46.7035 27.2263 46.7035L20.2747 39.3657ZM76.4669 8.27651C56.9637 -11.6128 35.5296 10.5937 35.5296 10.5937L48.0811 23.5314C48.0811 23.5314 60.2465 7.11791 75.5014 11.7523C77.2393 12.3316 78.7841 13.104 79.3634 12.7178C80.1358 12.1385 77.8186 9.62821 76.4669 8.27651Z" fill="#3E4347"/>
<path d="M50.2065 47.8623L43.2549 55.007C43.2549 55.007 46.9238 60.8 53.103 67.1723C59.8615 74.124 68.9372 78.1791 78.013 87.4479C91.53 101.351 102.73 116.413 106.785 122.013C108.33 124.137 108.523 123.944 110.454 122.013L116.247 116.027L50.2065 47.8623Z" fill="#F2B200"/>
<path d="M50.2061 47.862L57.1577 40.7173C57.1577 40.7173 62.7576 44.3862 68.9368 50.7585C75.6953 57.7101 79.5573 67.172 88.633 76.4409C102.15 90.3441 116.633 101.93 122.233 106.178C124.357 107.723 124.164 108.109 122.233 110.04L116.439 116.026L50.2061 47.862Z" fill="#FFCE31"/>
</svg>
