<svg width="77" height="77" viewBox="0 0 77 77" fill="none" xmlns="http://www.w3.org/2000/svg">
<rect width="77" height="77" rx="9" fill="#117EB8"/>
<path fill-rule="evenodd" clip-rule="evenodd" d="M14.9375 29.6027H25.2763V63H14.9375V29.6027ZM20.1085 13.0011C23.4144 13.0011 26.1003 15.6977 26.1003 19.0167C26.1003 22.339 23.4144 25.0367 20.1085 25.0367C19.3118 25.0519 18.5201 24.9074 17.7797 24.6118C17.0393 24.3162 16.365 23.8753 15.7962 23.315C15.2275 22.7547 14.7757 22.0862 14.4673 21.3485C14.1588 20.6109 14 19.8189 14 19.0189C14 18.2189 14.1588 17.4269 14.4673 16.6893C14.7757 15.9516 15.2275 15.2831 15.7962 14.7228C16.365 14.1625 17.0393 13.7216 17.7797 13.426C18.5201 13.1304 19.3118 12.9859 20.1085 13.0011ZM31.7612 29.6016H41.6777V34.1654H41.8152C43.1958 31.5399 46.5682 28.7721 51.5974 28.7721C62.0661 28.7721 64 35.6895 64 44.6823V63H53.6677V46.7587C53.6677 42.8863 53.5968 37.904 48.2958 37.904C42.9164 37.904 42.0902 42.1226 42.0902 46.4793V63H31.7601V29.6027L31.7612 29.6016Z" fill="white"/>
</svg>
