<svg width="77" height="77" viewBox="0 0 77 77" fill="none" xmlns="http://www.w3.org/2000/svg">
<path d="M67.9766 0H9.02344C4.03993 0 0 4.03993 0 9.02344V67.9766C0 72.9601 4.03993 77 9.02344 77H67.9766C72.9601 77 77 72.9601 77 67.9766V9.02344C77 4.03993 72.9601 0 67.9766 0Z" fill="black"/>
<path d="M53.5247 15.0391H61.4846L44.0946 34.9147L64.5525 61.9609H48.5341L35.9879 45.5575L21.6323 61.9609H13.6676L32.2679 40.7017L12.6426 15.0391H29.0676L40.4082 30.0324L53.5247 15.0391ZM50.731 57.1966H55.1417L26.6709 19.5532H21.9378L50.731 57.1966Z" fill="white"/>
</svg>
